<?xml version="1.0" standalone="no"?>
<!DOCTYPE svg PUBLIC "-//W3C//DTD SVG 20010904//EN"
 "http://www.w3.org/TR/2001/REC-SVG-20010904/DTD/svg10.dtd">
<svg version="1.0" xmlns="http://www.w3.org/2000/svg"
 width="640.000000pt" height="640.000000pt" viewBox="0 0 640.000000 640.000000"
 preserveAspectRatio="xMidYMid meet">
<metadata>
Created by potrace 1.11, written by Peter Selinger 2001-2013
</metadata>
<g transform="translate(0.000000,640.000000) scale(0.100000,-0.100000)"
fill="#000000" stroke="none">
<path d="M2955 5535 c-408 -54 -810 -224 -1139 -483 -99 -77 -310 -291 -383
-387 -263 -348 -417 -721 -469 -1135 -29 -233 -14 -558 36 -779 152 -671 584
-1234 1190 -1549 905 -471 2014 -290 2720 444 752 781 862 1976 265 2873 -335
505 -844 853 -1440 985 -208 46 -559 60 -780 31z m-37 -1486 l-3 -332 -309
-208 c-170 -115 -311 -211 -313 -213 -2 -2 138 -102 311 -222 l316 -219 0
-332 0 -333 -161 122 c-88 68 -342 260 -562 428 l-402 306 -2 244 -2 245 557
422 c306 232 560 422 565 422 4 1 6 -148 5 -330z m1186 -94 l556 -420 0 -245
0 -246 -557 -424 c-306 -234 -561 -426 -565 -428 -4 -2 -8 145 -8 327 l0 330
198 136 c108 75 252 173 319 218 67 45 122 84 122 87 0 3 -144 102 -319 220
l-320 215 0 328 c0 188 4 327 9 325 5 -1 259 -192 565 -423z"/>
</g>
</svg>
